<svg class="svg-icon" style="width: 1em; height: 1em;vertical-align: middle;fill: currentColor;overflow: hidden;" viewBox="0 0 1024 1024" version="1.1" xmlns="http://www.w3.org/2000/svg"><path d="M512 699.733333a16.896 16.896 0 0 1-6.314667-1.211733l-426.666666-169.813333c-6.485333-2.594133-10.752-8.874667-10.752-15.854934V341.333333a17.083733 17.083733 0 0 1 23.432533-15.837866L512 494.455467l420.3008-168.96A17.015467 17.015467 0 0 1 955.733333 341.333333v171.52a17.066667 17.066667 0 0 1-10.752 15.854934l-426.666666 169.813333A16.896 16.896 0 0 1 512 699.733333zM102.4 501.282133l409.6 163.0208 409.6-163.0208V366.592l-403.234133 162.0992a17.1008 17.1008 0 0 1-12.731734 0L102.4 366.592v134.690133z"  /></svg>